<?xml version="1.0" encoding="UTF-8" standalone="no"?>
<!DOCTYPE svg PUBLIC "-//W3C//DTD SVG 1.1//EN"
 "http://www.w3.org/Graphics/SVG/1.1/DTD/svg11.dtd">
<!-- Generated by graphviz version 2.40.1 (20161225.0304)
 -->
<!-- Title: G Pages: 1 -->
<svg width="253pt" height="136pt"
 viewBox="0.00 0.00 253.20 136.20" xmlns="http://www.w3.org/2000/svg" xmlns:xlink="http://www.w3.org/1999/xlink">
<g id="graph0" class="graph" transform="scale(1 1) rotate(0) translate(21.6 114.6)">
<title>G</title>
<polygon fill="#111111" stroke="transparent" points="-21.6,21.6 -21.6,-114.6 231.6,-114.6 231.6,21.6 -21.6,21.6"/>
<!-- assets/styles/index.styl -->
<g id="node1" class="node">
<title>assets/styles/index.styl</title>
<polygon fill="none" stroke="#cfffac" points="210,-93 90,-93 90,-90.8889 87.8889,-90.8889 87.8889,-88.7778 90,-88.7778 90,-78.2222 87.8889,-78.2222 87.8889,-76.1111 90,-76.1111 90,-74 210,-74 210,-93"/>
<polyline fill="none" stroke="#cfffac" points="90,-90.8889 92.1111,-90.8889 92.1111,-88.7778 90,-88.7778 "/>
<polyline fill="none" stroke="#cfffac" points="90,-78.2222 92.1111,-78.2222 92.1111,-76.1111 90,-76.1111 "/>
<text text-anchor="middle" x="150" y="-81" font-family="Arial" font-size="10.00" fill="#cfffac">assets/styles/index.styl</text>
</g>
<!-- dom.ts -->
<g id="node2" class="node">
<title>dom.ts</title>
<polygon fill="none" stroke="#cfffac" points="177,-56 123,-56 123,-53.8889 120.8889,-53.8889 120.8889,-51.7778 123,-51.7778 123,-41.2222 120.8889,-41.2222 120.8889,-39.1111 123,-39.1111 123,-37 177,-37 177,-56"/>
<polyline fill="none" stroke="#cfffac" points="123,-53.8889 125.1111,-53.8889 125.1111,-51.7778 123,-51.7778 "/>
<polyline fill="none" stroke="#cfffac" points="123,-41.2222 125.1111,-41.2222 125.1111,-39.1111 123,-39.1111 "/>
<text text-anchor="middle" x="150" y="-44" font-family="Arial" font-size="10.00" fill="#cfffac">dom.ts</text>
</g>
<!-- main.js -->
<g id="node3" class="node">
<title>main.js</title>
<polygon fill="none" stroke="#c6c5fe" points="54,-56 0,-56 0,-53.8889 -2.1111,-53.8889 -2.1111,-51.7778 0,-51.7778 0,-41.2222 -2.1111,-41.2222 -2.1111,-39.1111 0,-39.1111 0,-37 54,-37 54,-56"/>
<polyline fill="none" stroke="#c6c5fe" points="0,-53.8889 2.1111,-53.8889 2.1111,-51.7778 0,-51.7778 "/>
<polyline fill="none" stroke="#c6c5fe" points="0,-41.2222 2.1111,-41.2222 2.1111,-39.1111 0,-39.1111 "/>
<text text-anchor="middle" x="27" y="-44" font-family="Arial" font-size="10.00" fill="#c6c5fe">main.js</text>
</g>
<!-- main.js&#45;&gt;assets/styles/index.styl -->
<g id="edge1" class="edge">
<title>main.js&#45;&gt;assets/styles/index.styl</title>
<path fill="none" stroke="#757575" d="M54.2861,-54.7386C65.3679,-58.0821 78.2943,-61.979 90,-65.5 96.0143,-67.3091 102.3685,-69.2179 108.6031,-71.0895"/>
<polygon fill="#757575" stroke="#757575" points="107.6519,-74.4582 118.2359,-73.9802 109.6639,-67.7536 107.6519,-74.4582"/>
</g>
<!-- main.js&#45;&gt;dom.ts -->
<g id="edge2" class="edge">
<title>main.js&#45;&gt;dom.ts</title>
<path fill="none" stroke="#757575" d="M54.2977,-46.5C71.496,-46.5 93.9267,-46.5 112.7491,-46.5"/>
<polygon fill="#757575" stroke="#757575" points="112.7787,-50.0001 122.7786,-46.5 112.7786,-43.0001 112.7787,-50.0001"/>
</g>
<!-- youtube/youtube.js -->
<g id="node4" class="node">
<title>youtube/youtube.js</title>
<polygon fill="none" stroke="#cfffac" points="199.5,-19 100.5,-19 100.5,-16.8889 98.3889,-16.8889 98.3889,-14.7778 100.5,-14.7778 100.5,-4.2222 98.3889,-4.2222 98.3889,-2.1111 100.5,-2.1111 100.5,0 199.5,0 199.5,-19"/>
<polyline fill="none" stroke="#cfffac" points="100.5,-16.8889 102.6111,-16.8889 102.6111,-14.7778 100.5,-14.7778 "/>
<polyline fill="none" stroke="#cfffac" points="100.5,-4.2222 102.6111,-4.2222 102.6111,-2.1111 100.5,-2.1111 "/>
<text text-anchor="middle" x="150" y="-7" font-family="Arial" font-size="10.00" fill="#cfffac">youtube/youtube.js</text>
</g>
<!-- main.js&#45;&gt;youtube/youtube.js -->
<g id="edge3" class="edge">
<title>main.js&#45;&gt;youtube/youtube.js</title>
<path fill="none" stroke="#757575" d="M54.2977,-38.2885C70.1822,-33.5102 90.5303,-27.3893 108.3764,-22.0209"/>
<polygon fill="#757575" stroke="#757575" points="109.4214,-25.3616 117.9893,-19.1292 107.4049,-18.6583 109.4214,-25.3616"/>
</g>
</g>
</svg>
